<?xml version="1.0" encoding="UTF-8"?>
<svg version="1.1" xmlns="http://www.w3.org/2000/svg" width="256" height="256">
<path d="M0 0 C84.48 0 168.96 0 256 0 C256 84.48 256 168.96 256 256 C171.52 256 87.04 256 0 256 C0 171.52 0 87.04 0 0 Z " fill="#000000" transform="translate(0,0)"/>
<path d="M0 0 C42.57 0 85.14 0 129 0 C129 2.97 129 5.94 129 9 C109.2 9 89.4 9 69 9 C69 11.64 69 14.28 69 17 C83.52 17 98.04 17 113 17 C113 32.51 113 48.02 113 64 C102.605 64.495 102.605 64.495 92 65 C93.91683594 65.67546875 95.83367187 66.3509375 97.80859375 67.046875 C99.69532263 67.71523652 101.58204201 68.38362518 103.46850586 69.05273438 C104.76459803 69.5117101 106.06113701 69.96942637 107.3581543 70.42578125 C114.71589402 73.01561476 121.92713108 75.70599794 129 79 C127.27350831 82.74467376 125.54766941 84.77239363 122 87 C118.56592978 86.59935847 115.65623982 85.55020418 112.515625 84.14453125 C111.6702417 83.77191162 110.8248584 83.39929199 109.95385742 83.01538086 C109.06158447 82.61843018 108.16931152 82.22147949 107.25 81.8125 C97.97082035 77.75026871 88.60396837 74.2097142 79 71 C80 68 80 68 84 65 C70.47 65 56.94 65 43 65 C44.98 66.32 46.96 67.64 49 69 C42.17515763 76.52934223 30.31408226 79.52706596 21.0625 82.9375 C19.96019043 83.3514502 18.85788086 83.76540039 17.72216797 84.19189453 C16.6704541 84.57071777 15.61874023 84.94954102 14.53515625 85.33984375 C13.590354 85.68394287 12.64555176 86.02804199 11.67211914 86.38256836 C8.66330046 87.07779928 6.92430308 86.94902721 4 86 C1.1875 83.5625 1.1875 83.5625 -1 81 C-1 80.34 -1 79.68 -1 79 C-0.23969482 78.75354736 0.52061035 78.50709473 1.30395508 78.25317383 C4.80898268 77.11286229 8.31072066 75.9627461 11.8125 74.8125 C13.00810547 74.42513672 14.20371094 74.03777344 15.43554688 73.63867188 C22.87661446 71.18534986 29.92649466 68.37204361 37 65 C30.07 64.67 23.14 64.34 16 64 C16 48.49 16 32.98 16 17 C29.86 17 43.72 17 58 17 C58 14.36 58 11.72 58 9 C38.86 9 19.72 9 0 9 C0 6.03 0 3.06 0 0 Z " fill="#FAFAFA" transform="translate(64,107)"/>
<path d="M0 0 C3.3 0 6.6 0 10 0 C10 3.63 10 7.26 10 11 C23.53 11 37.06 11 51 11 C51 7.37 51 3.74 51 0 C54.3 0 57.6 0 61 0 C61 3.63 61 7.26 61 11 C69.91 11 78.82 11 88 11 C88 13.64 88 16.28 88 19 C79.09 19 70.18 19 61 19 C61 24.94 61 30.88 61 37 C40.87 37 20.74 37 0 37 C0 31.06 0 25.12 0 19 C-8.91 19 -17.82 19 -27 19 C-27 16.36 -27 13.72 -27 11 C-18.09 11 -9.18 11 0 11 C0 7.37 0 3.74 0 0 Z " fill="#FFFFFF" transform="translate(98,62)"/>
<path d="M0 0 C0.33 0 0.66 0 1 0 C1 15.18 1 30.36 1 46 C32.68 46 64.36 46 97 46 C97 46.33 97 46.66 97 47 C86.605 47.495 86.605 47.495 76 48 C78.87525391 49.01320313 78.87525391 49.01320313 81.80859375 50.046875 C83.69532263 50.71523652 85.58204201 51.38362518 87.46850586 52.05273438 C88.76459803 52.5117101 90.06113701 52.96942637 91.3581543 53.42578125 C98.71589402 56.01561476 105.92713108 58.70599794 113 62 C111.27350831 65.74467376 109.54766941 67.77239363 106 70 C102.56592978 69.59935847 99.65623982 68.55020418 96.515625 67.14453125 C95.6702417 66.77191162 94.8248584 66.39929199 93.95385742 66.01538086 C93.06158447 65.61843018 92.16931152 65.22147949 91.25 64.8125 C81.97082035 60.75026871 72.60396837 57.2097142 63 54 C64 51 64 51 68 48 C54.47 48 40.94 48 27 48 C28.98 49.32 30.96 50.64 33 52 C26.17515763 59.52934223 14.31408226 62.52706596 5.0625 65.9375 C3.96019043 66.3514502 2.85788086 66.76540039 1.72216797 67.19189453 C0.6704541 67.57071777 -0.38125977 67.94954102 -1.46484375 68.33984375 C-2.409646 68.68394287 -3.35444824 69.02804199 -4.32788086 69.38256836 C-7.33669954 70.07779928 -9.07569692 69.94902721 -12 69 C-14.8125 66.5625 -14.8125 66.5625 -17 64 C-17 63.34 -17 62.68 -17 62 C-16.23969482 61.75354736 -15.47938965 61.50709473 -14.69604492 61.25317383 C-11.19101732 60.11286229 -7.68927934 58.9627461 -4.1875 57.8125 C-2.99189453 57.42513672 -1.79628906 57.03777344 -0.56445312 56.63867188 C6.87661446 54.18534986 13.92649466 51.37204361 21 48 C14.07 47.67 7.14 47.34 0 47 C0 31.49 0 15.98 0 0 Z " fill="#F2F2F2" transform="translate(80,124)"/>
<path d="M0 0 C13.53 0 27.06 0 41 0 C41 3.63 41 7.26 41 11 C27.47 11 13.94 11 0 11 C0 7.37 0 3.74 0 0 Z " fill="#111111" transform="translate(108,81)"/>
<path d="M0 0 C11.22 0 22.44 0 34 0 C34 3.96 34 7.92 34 12 C22.78 12 11.56 12 0 12 C0 8.04 0 4.08 0 0 Z " fill="#050505" transform="translate(133,151)"/>
<path d="M0 0 C11.22 0 22.44 0 34 0 C34 3.96 34 7.92 34 12 C22.78 12 11.56 12 0 12 C0 8.04 0 4.08 0 0 Z " fill="#0C0C0C" transform="translate(133,132)"/>
<path d="M0 0 C10.56 0 21.12 0 32 0 C32 3.96 32 7.92 32 12 C21.44 12 10.88 12 0 12 C0 8.04 0 4.08 0 0 Z " fill="#060606" transform="translate(90,151)"/>
<path d="M0 0 C10.23 0 20.46 0 31 0 C31 3.63 31 7.26 31 11 C20.77 11 10.54 11 0 11 C0 7.37 0 3.74 0 0 Z " fill="#000000" transform="translate(91,132)"/>
</svg>
